<svg width="330" height="400" xmlns="http://www.w3.org/2000/svg" preserveAspectRatio="xMidYMid meet">

 <g>
  <title>background</title>
  <rect fill="#47576b" id="canvas_background" height="402" width="332" y="-1" x="-1"/>
 </g>
 <g>
  <title>Layer 1</title>
  <ellipse stroke="#000" opacity="0.7" ry="191.000005" rx="154" id="svg_4" cy="199.999995" cx="165" stroke-width="0" fill="#8391AE"/>
  <g id="svg_1" fill="#ffffff" transform="translate(0,383) scale(0.10000000149011612,-0.10000000149011612) ">
   <path fill="#2D6862" id="svg_2" d="m1750,3485c0,-11 -12,-15 -45,-15c-33,0 -45,-4 -45,-15c0,-11 -12,-15 -45,-15c-33,0 -45,-4 -45,-15c0,-10 -10,-15 -30,-15c-20,0 -30,-5 -30,-15c0,-10 -10,-15 -30,-15c-20,0 -30,-5 -30,-15c0,-8 -7,-15 -15,-15c-8,0 -15,-7 -15,-15c0,-8 -7,-15 -15,-15c-8,0 -15,-7 -15,-15c0,-8 -7,-15 -15,-15c-8,0 -15,-7 -15,-15c0,-10 -10,-15 -30,-15c-20,0 -30,-5 -30,-15c0,-10 -10,-15 -30,-15c-20,0 -30,5 -30,15c0,8 -7,15 -15,15c-8,0 -15,7 -15,15c0,8 -7,15 -15,15c-8,0 -15,7 -15,15c0,11 -12,15 -45,15l-45,0l0,-195c0,-167 -2,-195 -15,-195c-10,0 -15,-10 -15,-30c0,-20 -5,-30 -15,-30c-8,0 -15,-7 -15,-15c0,-8 -7,-15 -15,-15c-8,0 -15,-7 -15,-15c0,-8 -7,-15 -15,-15c-10,0 -15,-10 -15,-30c0,-20 -5,-30 -15,-30c-10,0 -15,-10 -15,-30c0,-20 -5,-30 -15,-30c-12,0 -15,-13 -15,-60c0,-47 -3,-60 -15,-60c-11,0 -15,12 -15,45c0,33 -4,45 -15,45c-10,0 -15,10 -15,30c0,20 -5,30 -15,30c-10,0 -15,10 -15,30c0,20 -5,30 -15,30c-8,0 -15,7 -15,15c0,8 -7,15 -15,15c-10,0 -15,10 -15,30c0,20 -5,30 -15,30c-8,0 -15,7 -15,15c0,8 -7,15 -15,15c-8,0 -15,7 -15,15c0,8 -7,15 -15,15c-8,0 -15,7 -15,15c0,8 -7,15 -15,15c-8,0 -15,7 -15,15c0,8 -7,15 -15,15c-8,0 -15,7 -15,15c0,8 -7,15 -15,15c-8,0 -15,-7 -15,-15c0,-8 -7,-15 -15,-15c-8,0 -15,-7 -15,-15c0,-8 -7,-15 -15,-15c-8,0 -15,-7 -15,-15c0,-8 -7,-15 -15,-15c-8,0 -15,-7 -15,-15c0,-8 -7,-15 -15,-15c-8,0 -15,-7 -15,-15c0,-8 -7,-15 -15,-15c-8,0 -15,-7 -15,-15c0,-12 15,-15 75,-15c60,0 75,-3 75,-15c0,-8 7,-15 15,-15c8,0 15,-7 15,-15c0,-8 7,-15 15,-15c10,0 15,-10 15,-30c0,-20 5,-30 15,-30c10,0 15,-10 15,-30c0,-20 5,-30 15,-30c10,0 15,-10 15,-30c0,-20 5,-30 15,-30c10,0 15,-10 15,-30c0,-20 5,-30 15,-30c11,0 15,-12 15,-45c0,-33 4,-45 15,-45c8,0 15,-7 15,-15c0,-8 7,-15 15,-15c8,0 15,-7 15,-15c0,-8 7,-15 15,-15c13,0 15,-25 15,-165c0,-140 -2,-165 -15,-165c-13,0 -15,-43 -15,-330c0,-287 2,-330 15,-330c12,0 15,-15 15,-75c0,-60 3,-75 15,-75c12,0 15,-13 15,-60c0,-47 3,-60 15,-60c11,0 15,-12 15,-45c0,-33 4,-45 15,-45c10,0 15,-10 15,-30c0,-20 5,-30 15,-30c11,0 15,-12 15,-45c0,-33 4,-45 15,-45c10,0 15,-10 15,-30c0,-20 5,-30 15,-30c10,0 15,-10 15,-30c0,-20 5,-30 15,-30c8,0 15,-7 15,-15c0,-8 7,-15 15,-15c10,0 15,-10 15,-30c0,-20 5,-30 15,-30c10,0 15,-10 15,-30c0,-20 5,-30 15,-30c8,0 15,-7 15,-15c0,-8 7,-15 15,-15c8,0 15,-7 15,-15c0,-8 7,-15 15,-15c10,0 15,-10 15,-30c0,-20 5,-30 15,-30c8,0 15,-7 15,-15c0,-8 7,-15 15,-15c8,0 15,-7 15,-15c0,-8 7,-15 15,-15c8,0 15,-7 15,-15c0,-8 7,-15 15,-15c8,0 15,-7 15,-15c0,-10 10,-15 30,-15c20,0 30,-5 30,-15c0,-8 7,-15 15,-15c8,0 15,-7 15,-15c0,-8 7,-15 15,-15c8,0 15,-7 15,-15c0,-10 10,-15 30,-15c20,0 30,-5 30,-15c0,-10 10,-15 30,-15c20,0 30,-5 30,-15c0,-11 12,-15 45,-15c33,0 45,-4 45,-15c0,-11 12,-15 45,-15c33,0 45,-4 45,-15c0,-13 27,-15 180,-15c153,0 180,2 180,15c0,12 13,15 60,15c47,0 60,3 60,15c0,10 10,15 30,15c20,0 30,5 30,15c0,10 10,15 30,15c20,0 30,5 30,15c0,10 10,15 30,15c20,0 30,5 30,15c0,8 7,15 15,15c8,0 15,7 15,15c0,10 10,15 30,15c20,0 30,5 30,15c0,8 7,15 15,15c8,0 15,7 15,15c0,8 7,15 15,15c8,0 15,7 15,15c0,8 7,15 15,15c8,0 15,7 15,15c0,8 7,15 15,15c8,0 15,7 15,15c0,8 7,15 15,15c8,0 15,7 15,15c0,8 7,15 15,15c10,0 15,10 15,30c0,20 5,30 15,30c8,0 15,7 15,15c0,8 7,15 15,15c8,0 15,7 15,15c0,8 7,15 15,15c10,0 15,10 15,30c0,20 5,30 15,30c10,0 15,10 15,30c0,20 5,30 15,30c10,0 15,10 15,30c0,20 5,30 15,30c10,0 15,10 15,30c0,20 5,30 15,30c10,0 15,10 15,30c0,20 5,30 15,30c11,0 15,12 15,45c0,33 4,45 15,45c11,0 15,12 15,45c0,33 4,45 15,45c11,0 15,12 15,45c0,33 4,45 15,45c12,0 15,15 15,75c0,60 3,75 15,75c12,0 15,18 15,105c0,87 3,105 15,105c13,0 15,32 15,225c0,193 -2,225 -15,225c-12,0 -15,18 -15,105c0,87 -3,105 -15,105c-12,0 -15,15 -15,75c0,60 -3,75 -15,75c-11,0 -15,12 -15,45c0,33 -4,45 -15,45c-11,0 -15,12 -15,45c0,33 -4,45 -15,45c-11,0 -15,12 -15,45c0,33 -4,45 -15,45c-10,0 -15,10 -15,30c0,20 -5,30 -15,30c-10,0 -15,10 -15,30c0,20 -5,30 -15,30c-10,0 -15,10 -15,30c0,20 -5,30 -15,30c-10,0 -15,10 -15,30c0,20 -5,30 -15,30c-10,0 -15,10 -15,30c0,20 -5,30 -15,30c-8,0 -15,7 -15,15c0,8 -7,15 -15,15c-8,0 -15,7 -15,15c0,8 -7,15 -15,15c-10,0 -15,10 -15,30c0,20 -5,30 -15,30c-8,0 -15,7 -15,15c0,8 -7,15 -15,15c-8,0 -15,7 -15,15c0,8 -7,15 -15,15c-8,0 -15,7 -15,15c0,8 -7,15 -15,15c-8,0 -15,7 -15,15c0,8 -7,15 -15,15c-8,0 -15,7 -15,15c0,8 -7,15 -15,15c-8,0 -15,7 -15,15c0,8 -7,15 -15,15c-8,0 -15,7 -15,15c0,10 -10,15 -30,15c-20,0 -30,5 -30,15c0,8 -7,15 -15,15c-8,0 -15,7 -15,15c0,8 -7,15 -15,15c-8,0 -15,7 -15,15c0,10 -10,15 -30,15c-20,0 -30,5 -30,15c0,10 -10,15 -30,15c-20,0 -30,5 -30,15c0,11 -12,15 -45,15c-33,0 -45,4 -45,15c0,11 -12,15 -45,15c-33,0 -45,4 -45,15c0,13 -23,15 -150,15c-127,0 -150,-2 -150,-15zm330,-150c0,-12 13,-15 60,-15c47,0 60,-3 60,-15c0,-10 10,-15 30,-15c20,0 30,-5 30,-15c0,-10 10,-15 30,-15c20,0 30,-5 30,-15c0,-10 10,-15 30,-15c20,0 30,-5 30,-15c0,-8 7,-15 15,-15c8,0 15,-7 15,-15c0,-8 7,-15 15,-15c8,0 15,-7 15,-15c0,-8 7,-15 15,-15c8,0 15,-7 15,-15c0,-8 7,-15 15,-15c8,0 15,-7 15,-15c0,-8 7,-15 15,-15c8,0 15,-7 15,-15c0,-8 7,-15 15,-15c8,0 15,-7 15,-15c0,-8 7,-15 15,-15c10,0 15,-10 15,-30c0,-20 5,-30 15,-30c8,0 15,-7 15,-15c0,-8 7,-15 15,-15c10,0 15,-10 15,-30c0,-20 5,-30 15,-30c10,0 15,-10 15,-30c0,-20 5,-30 15,-30c10,0 15,-10 15,-30c0,-20 5,-30 15,-30c10,0 15,-10 15,-30c0,-20 5,-30 15,-30c11,0 15,-12 15,-45c0,-33 4,-45 15,-45c11,0 15,-12 15,-45c0,-33 4,-45 15,-45c11,0 15,-12 15,-45c0,-33 4,-45 15,-45c12,0 15,-15 15,-75c0,-60 3,-75 15,-75c12,0 15,-18 15,-105c0,-87 3,-105 15,-105c13,0 15,-33 15,-240c0,-207 -2,-240 -15,-240c-12,0 -15,-17 -15,-90c0,-73 -3,-90 -15,-90c-12,0 -15,-15 -15,-75c0,-60 -3,-75 -15,-75c-11,0 -15,-12 -15,-45c0,-33 -4,-45 -15,-45c-11,0 -15,-12 -15,-45c0,-33 -4,-45 -15,-45c-11,0 -15,-12 -15,-45c0,-33 -4,-45 -15,-45c-10,0 -15,-10 -15,-30c0,-20 -5,-30 -15,-30c-10,0 -15,-10 -15,-30c0,-20 -5,-30 -15,-30c-10,0 -15,-10 -15,-30c0,-20 -5,-30 -15,-30c-10,0 -15,-10 -15,-30c0,-20 -5,-30 -15,-30c-8,0 -15,-7 -15,-15c0,-8 -7,-15 -15,-15c-10,0 -15,-10 -15,-30c0,-20 -5,-30 -15,-30c-8,0 -15,-7 -15,-15c0,-8 -7,-15 -15,-15c-8,0 -15,-7 -15,-15c0,-8 -7,-15 -15,-15c-8,0 -15,-7 -15,-15c0,-8 -7,-15 -15,-15c-10,0 -15,-10 -15,-30c0,-20 -5,-30 -15,-30c-8,0 -15,-7 -15,-15c0,-10 -10,-15 -30,-15c-20,0 -30,-5 -30,-15c0,-8 -7,-15 -15,-15c-8,0 -15,-7 -15,-15c0,-8 -7,-15 -15,-15c-8,0 -15,-7 -15,-15c0,-10 -10,-15 -30,-15c-20,0 -30,-5 -30,-15c0,-10 -10,-15 -30,-15c-20,0 -30,-5 -30,-15c0,-10 -10,-15 -30,-15c-20,0 -30,-5 -30,-15c0,-11 -12,-15 -45,-15c-33,0 -45,-4 -45,-15c0,-12 -20,-15 -120,-15c-100,0 -120,3 -120,15c0,11 -12,15 -45,15c-33,0 -45,4 -45,15c0,10 -10,15 -30,15c-20,0 -30,5 -30,15c0,10 -10,15 -30,15c-20,0 -30,5 -30,15c0,10 -10,15 -30,15c-20,0 -30,5 -30,15c0,8 -7,15 -15,15c-8,0 -15,7 -15,15c0,8 -7,15 -15,15c-8,0 -15,7 -15,15c0,10 -10,15 -30,15c-20,0 -30,5 -30,15c0,8 -7,15 -15,15c-8,0 -15,7 -15,15c0,8 -7,15 -15,15c-8,0 -15,7 -15,15c0,8 -7,15 -15,15c-10,0 -15,10 -15,30c0,20 -5,30 -15,30c-8,0 -15,7 -15,15c0,8 -7,15 -15,15c-11,0 -15,12 -15,45c0,33 -4,45 -15,45c-8,0 -15,7 -15,15c0,8 -7,15 -15,15c-10,0 -15,10 -15,30c0,20 -5,30 -15,30c-11,0 -15,12 -15,45c0,33 -4,45 -15,45c-11,0 -15,12 -15,45c0,33 -4,45 -15,45c-11,0 -15,12 -15,45c0,33 -4,45 -15,45c-11,0 -15,12 -15,45c0,33 -4,45 -15,45c-11,0 -15,12 -15,45c0,33 -4,45 -15,45c-12,0 -15,17 -15,90c0,73 -3,90 -15,90c-13,0 -15,30 -15,210c0,180 2,210 15,210c12,0 15,17 15,90c0,73 3,90 15,90c11,0 15,12 15,45c0,33 4,45 15,45c11,0 15,12 15,45c0,33 4,45 15,45c10,0 15,10 15,30c0,20 5,30 15,30c11,0 15,12 15,45c0,33 4,45 15,45c8,0 15,7 15,15c0,8 7,15 15,15c10,0 15,10 15,30c0,20 5,30 15,30c8,0 15,7 15,15c0,8 7,15 15,15c8,0 15,7 15,15c0,8 7,15 15,15c8,0 15,7 15,15c0,8 7,15 15,15c8,0 15,7 15,15c0,10 10,15 30,15c20,0 30,5 30,15c0,12 17,15 90,15c73,0 90,3 90,15c0,8 -7,15 -15,15c-8,0 -15,7 -15,15c0,8 -7,15 -15,15c-8,0 -15,7 -15,15c0,8 -7,15 -15,15c-8,0 -15,7 -15,15c0,8 -7,15 -15,15c-8,0 -15,7 -15,15c0,11 -12,15 -45,15c-33,0 -45,-4 -45,-15c0,-10 -10,-15 -30,-15c-20,0 -30,-5 -30,-15c0,-10 -10,-15 -30,-15c-20,0 -30,-5 -30,-15c0,-8 -7,-15 -15,-15c-8,0 -15,-7 -15,-15c0,-8 -7,-15 -15,-15c-8,0 -15,-7 -15,-15c0,-8 -7,-15 -15,-15c-8,0 -15,-7 -15,-15c0,-8 -7,-15 -15,-15c-8,0 -15,-7 -15,-15c0,-8 -7,-15 -15,-15c-10,0 -15,10 -15,30c0,20 5,30 15,30c10,0 15,10 15,30c0,20 5,30 15,30c10,0 15,10 15,30c0,20 5,30 15,30c10,0 15,10 15,30c0,20 5,30 15,30c8,0 15,7 15,15c0,13 27,15 180,15l180,0l0,45c0,33 -4,45 -15,45c-8,0 -15,7 -15,15c0,8 -7,15 -15,15c-8,0 -15,7 -15,15c0,8 -7,15 -15,15c-8,0 -15,7 -15,15c0,8 -7,15 -15,15c-8,0 -15,7 -15,15c0,8 -7,15 -15,15c-10,0 -15,10 -15,30c0,20 5,30 15,30c8,0 15,7 15,15c0,8 7,15 15,15c8,0 15,7 15,15c0,8 7,15 15,15c8,0 15,7 15,15c0,8 7,15 15,15c8,0 15,7 15,15c0,10 10,15 30,15c20,0 30,5 30,15c0,10 10,15 30,15c20,0 30,5 30,15c0,10 10,15 30,15c20,0 30,5 30,15c0,12 13,15 60,15c47,0 60,3 60,15c0,13 20,15 120,15c100,0 120,-2 120,-15z"/>
  </g>
 </g>
</svg>