<?xml version="1.0" standalone="no"?>
<!DOCTYPE svg PUBLIC "-//W3C//DTD SVG 20010904//EN"
 "http://www.w3.org/TR/2001/REC-SVG-20010904/DTD/svg10.dtd">
<svg version="1.0" xmlns="http://www.w3.org/2000/svg"
 width="308.000000pt" height="383.000000pt" viewBox="0 0 308.000000 383.000000"
 preserveAspectRatio="xMidYMid meet">

<g transform="translate(0.000000,383.000000) scale(0.100000,-0.100000)"
fill="#ffffff" stroke="none">
<path d="M1520 3545 c0 -11 -12 -15 -45 -15 -33 0 -45 -4 -45 -15 0 -11 -12
-15 -45 -15 -33 0 -45 -4 -45 -15 0 -10 -10 -15 -30 -15 -20 0 -30 -5 -30 -15
0 -10 -10 -15 -30 -15 -20 0 -30 -5 -30 -15 0 -8 -7 -15 -15 -15 -8 0 -15 -7
-15 -15 0 -8 -7 -15 -15 -15 -8 0 -15 -7 -15 -15 0 -8 -7 -15 -15 -15 -8 0
-15 -7 -15 -15 0 -10 -10 -15 -30 -15 -20 0 -30 -5 -30 -15 0 -10 -10 -15 -30
-15 -20 0 -30 5 -30 15 0 8 -7 15 -15 15 -8 0 -15 7 -15 15 0 8 -7 15 -15 15
-8 0 -15 7 -15 15 0 11 -12 15 -45 15 l-45 0 0 -195 c0 -167 -2 -195 -15 -195
-10 0 -15 -10 -15 -30 0 -20 -5 -30 -15 -30 -8 0 -15 -7 -15 -15 0 -8 -7 -15
-15 -15 -8 0 -15 -7 -15 -15 0 -8 -7 -15 -15 -15 -10 0 -15 -10 -15 -30 0 -20
-5 -30 -15 -30 -10 0 -15 -10 -15 -30 0 -20 -5 -30 -15 -30 -12 0 -15 -13 -15
-60 0 -47 -3 -60 -15 -60 -11 0 -15 12 -15 45 0 33 -4 45 -15 45 -10 0 -15 10
-15 30 0 20 -5 30 -15 30 -10 0 -15 10 -15 30 0 20 -5 30 -15 30 -8 0 -15 7
-15 15 0 8 -7 15 -15 15 -10 0 -15 10 -15 30 0 20 -5 30 -15 30 -8 0 -15 7
-15 15 0 8 -7 15 -15 15 -8 0 -15 7 -15 15 0 8 -7 15 -15 15 -8 0 -15 7 -15
15 0 8 -7 15 -15 15 -8 0 -15 7 -15 15 0 8 -7 15 -15 15 -8 0 -15 7 -15 15 0
8 -7 15 -15 15 -8 0 -15 -7 -15 -15 0 -8 -7 -15 -15 -15 -8 0 -15 -7 -15 -15
0 -8 -7 -15 -15 -15 -8 0 -15 -7 -15 -15 0 -8 -7 -15 -15 -15 -8 0 -15 -7 -15
-15 0 -8 -7 -15 -15 -15 -8 0 -15 -7 -15 -15 0 -8 -7 -15 -15 -15 -8 0 -15 -7
-15 -15 0 -12 15 -15 75 -15 60 0 75 -3 75 -15 0 -8 7 -15 15 -15 8 0 15 -7
15 -15 0 -8 7 -15 15 -15 10 0 15 -10 15 -30 0 -20 5 -30 15 -30 10 0 15 -10
15 -30 0 -20 5 -30 15 -30 10 0 15 -10 15 -30 0 -20 5 -30 15 -30 10 0 15 -10
15 -30 0 -20 5 -30 15 -30 11 0 15 -12 15 -45 0 -33 4 -45 15 -45 8 0 15 -7
15 -15 0 -8 7 -15 15 -15 8 0 15 -7 15 -15 0 -8 7 -15 15 -15 13 0 15 -25 15
-165 0 -140 -2 -165 -15 -165 -13 0 -15 -43 -15 -330 0 -287 2 -330 15 -330
12 0 15 -15 15 -75 0 -60 3 -75 15 -75 12 0 15 -13 15 -60 0 -47 3 -60 15 -60
11 0 15 -12 15 -45 0 -33 4 -45 15 -45 10 0 15 -10 15 -30 0 -20 5 -30 15 -30
11 0 15 -12 15 -45 0 -33 4 -45 15 -45 10 0 15 -10 15 -30 0 -20 5 -30 15 -30
10 0 15 -10 15 -30 0 -20 5 -30 15 -30 8 0 15 -7 15 -15 0 -8 7 -15 15 -15 10
0 15 -10 15 -30 0 -20 5 -30 15 -30 10 0 15 -10 15 -30 0 -20 5 -30 15 -30 8
0 15 -7 15 -15 0 -8 7 -15 15 -15 8 0 15 -7 15 -15 0 -8 7 -15 15 -15 10 0 15
-10 15 -30 0 -20 5 -30 15 -30 8 0 15 -7 15 -15 0 -8 7 -15 15 -15 8 0 15 -7
15 -15 0 -8 7 -15 15 -15 8 0 15 -7 15 -15 0 -8 7 -15 15 -15 8 0 15 -7 15
-15 0 -10 10 -15 30 -15 20 0 30 -5 30 -15 0 -8 7 -15 15 -15 8 0 15 -7 15
-15 0 -8 7 -15 15 -15 8 0 15 -7 15 -15 0 -10 10 -15 30 -15 20 0 30 -5 30
-15 0 -10 10 -15 30 -15 20 0 30 -5 30 -15 0 -11 12 -15 45 -15 33 0 45 -4 45
-15 0 -11 12 -15 45 -15 33 0 45 -4 45 -15 0 -13 27 -15 180 -15 153 0 180 2
180 15 0 12 13 15 60 15 47 0 60 3 60 15 0 10 10 15 30 15 20 0 30 5 30 15 0
10 10 15 30 15 20 0 30 5 30 15 0 10 10 15 30 15 20 0 30 5 30 15 0 8 7 15 15
15 8 0 15 7 15 15 0 10 10 15 30 15 20 0 30 5 30 15 0 8 7 15 15 15 8 0 15 7
15 15 0 8 7 15 15 15 8 0 15 7 15 15 0 8 7 15 15 15 8 0 15 7 15 15 0 8 7 15
15 15 8 0 15 7 15 15 0 8 7 15 15 15 8 0 15 7 15 15 0 8 7 15 15 15 10 0 15
10 15 30 0 20 5 30 15 30 8 0 15 7 15 15 0 8 7 15 15 15 8 0 15 7 15 15 0 8 7
15 15 15 10 0 15 10 15 30 0 20 5 30 15 30 10 0 15 10 15 30 0 20 5 30 15 30
10 0 15 10 15 30 0 20 5 30 15 30 10 0 15 10 15 30 0 20 5 30 15 30 10 0 15
10 15 30 0 20 5 30 15 30 11 0 15 12 15 45 0 33 4 45 15 45 11 0 15 12 15 45
0 33 4 45 15 45 11 0 15 12 15 45 0 33 4 45 15 45 12 0 15 15 15 75 0 60 3 75
15 75 12 0 15 18 15 105 0 87 3 105 15 105 13 0 15 32 15 225 0 193 -2 225
-15 225 -12 0 -15 18 -15 105 0 87 -3 105 -15 105 -12 0 -15 15 -15 75 0 60
-3 75 -15 75 -11 0 -15 12 -15 45 0 33 -4 45 -15 45 -11 0 -15 12 -15 45 0 33
-4 45 -15 45 -11 0 -15 12 -15 45 0 33 -4 45 -15 45 -10 0 -15 10 -15 30 0 20
-5 30 -15 30 -10 0 -15 10 -15 30 0 20 -5 30 -15 30 -10 0 -15 10 -15 30 0 20
-5 30 -15 30 -10 0 -15 10 -15 30 0 20 -5 30 -15 30 -10 0 -15 10 -15 30 0 20
-5 30 -15 30 -8 0 -15 7 -15 15 0 8 -7 15 -15 15 -8 0 -15 7 -15 15 0 8 -7 15
-15 15 -10 0 -15 10 -15 30 0 20 -5 30 -15 30 -8 0 -15 7 -15 15 0 8 -7 15
-15 15 -8 0 -15 7 -15 15 0 8 -7 15 -15 15 -8 0 -15 7 -15 15 0 8 -7 15 -15
15 -8 0 -15 7 -15 15 0 8 -7 15 -15 15 -8 0 -15 7 -15 15 0 8 -7 15 -15 15 -8
0 -15 7 -15 15 0 8 -7 15 -15 15 -8 0 -15 7 -15 15 0 10 -10 15 -30 15 -20 0
-30 5 -30 15 0 8 -7 15 -15 15 -8 0 -15 7 -15 15 0 8 -7 15 -15 15 -8 0 -15 7
-15 15 0 10 -10 15 -30 15 -20 0 -30 5 -30 15 0 10 -10 15 -30 15 -20 0 -30 5
-30 15 0 11 -12 15 -45 15 -33 0 -45 4 -45 15 0 11 -12 15 -45 15 -33 0 -45 4
-45 15 0 13 -23 15 -150 15 -127 0 -150 -2 -150 -15z m330 -150 c0 -12 13 -15
60 -15 47 0 60 -3 60 -15 0 -10 10 -15 30 -15 20 0 30 -5 30 -15 0 -10 10 -15
30 -15 20 0 30 -5 30 -15 0 -10 10 -15 30 -15 20 0 30 -5 30 -15 0 -8 7 -15
15 -15 8 0 15 -7 15 -15 0 -8 7 -15 15 -15 8 0 15 -7 15 -15 0 -8 7 -15 15
-15 8 0 15 -7 15 -15 0 -8 7 -15 15 -15 8 0 15 -7 15 -15 0 -8 7 -15 15 -15 8
0 15 -7 15 -15 0 -8 7 -15 15 -15 8 0 15 -7 15 -15 0 -8 7 -15 15 -15 10 0 15
-10 15 -30 0 -20 5 -30 15 -30 8 0 15 -7 15 -15 0 -8 7 -15 15 -15 10 0 15
-10 15 -30 0 -20 5 -30 15 -30 10 0 15 -10 15 -30 0 -20 5 -30 15 -30 10 0 15
-10 15 -30 0 -20 5 -30 15 -30 10 0 15 -10 15 -30 0 -20 5 -30 15 -30 11 0 15
-12 15 -45 0 -33 4 -45 15 -45 11 0 15 -12 15 -45 0 -33 4 -45 15 -45 11 0 15
-12 15 -45 0 -33 4 -45 15 -45 12 0 15 -15 15 -75 0 -60 3 -75 15 -75 12 0 15
-18 15 -105 0 -87 3 -105 15 -105 13 0 15 -33 15 -240 0 -207 -2 -240 -15
-240 -12 0 -15 -17 -15 -90 0 -73 -3 -90 -15 -90 -12 0 -15 -15 -15 -75 0 -60
-3 -75 -15 -75 -11 0 -15 -12 -15 -45 0 -33 -4 -45 -15 -45 -11 0 -15 -12 -15
-45 0 -33 -4 -45 -15 -45 -11 0 -15 -12 -15 -45 0 -33 -4 -45 -15 -45 -10 0
-15 -10 -15 -30 0 -20 -5 -30 -15 -30 -10 0 -15 -10 -15 -30 0 -20 -5 -30 -15
-30 -10 0 -15 -10 -15 -30 0 -20 -5 -30 -15 -30 -10 0 -15 -10 -15 -30 0 -20
-5 -30 -15 -30 -8 0 -15 -7 -15 -15 0 -8 -7 -15 -15 -15 -10 0 -15 -10 -15
-30 0 -20 -5 -30 -15 -30 -8 0 -15 -7 -15 -15 0 -8 -7 -15 -15 -15 -8 0 -15
-7 -15 -15 0 -8 -7 -15 -15 -15 -8 0 -15 -7 -15 -15 0 -8 -7 -15 -15 -15 -10
0 -15 -10 -15 -30 0 -20 -5 -30 -15 -30 -8 0 -15 -7 -15 -15 0 -10 -10 -15
-30 -15 -20 0 -30 -5 -30 -15 0 -8 -7 -15 -15 -15 -8 0 -15 -7 -15 -15 0 -8
-7 -15 -15 -15 -8 0 -15 -7 -15 -15 0 -10 -10 -15 -30 -15 -20 0 -30 -5 -30
-15 0 -10 -10 -15 -30 -15 -20 0 -30 -5 -30 -15 0 -10 -10 -15 -30 -15 -20 0
-30 -5 -30 -15 0 -11 -12 -15 -45 -15 -33 0 -45 -4 -45 -15 0 -12 -20 -15
-120 -15 -100 0 -120 3 -120 15 0 11 -12 15 -45 15 -33 0 -45 4 -45 15 0 10
-10 15 -30 15 -20 0 -30 5 -30 15 0 10 -10 15 -30 15 -20 0 -30 5 -30 15 0 10
-10 15 -30 15 -20 0 -30 5 -30 15 0 8 -7 15 -15 15 -8 0 -15 7 -15 15 0 8 -7
15 -15 15 -8 0 -15 7 -15 15 0 10 -10 15 -30 15 -20 0 -30 5 -30 15 0 8 -7 15
-15 15 -8 0 -15 7 -15 15 0 8 -7 15 -15 15 -8 0 -15 7 -15 15 0 8 -7 15 -15
15 -10 0 -15 10 -15 30 0 20 -5 30 -15 30 -8 0 -15 7 -15 15 0 8 -7 15 -15 15
-11 0 -15 12 -15 45 0 33 -4 45 -15 45 -8 0 -15 7 -15 15 0 8 -7 15 -15 15
-10 0 -15 10 -15 30 0 20 -5 30 -15 30 -11 0 -15 12 -15 45 0 33 -4 45 -15 45
-11 0 -15 12 -15 45 0 33 -4 45 -15 45 -11 0 -15 12 -15 45 0 33 -4 45 -15 45
-11 0 -15 12 -15 45 0 33 -4 45 -15 45 -11 0 -15 12 -15 45 0 33 -4 45 -15 45
-12 0 -15 17 -15 90 0 73 -3 90 -15 90 -13 0 -15 30 -15 210 0 180 2 210 15
210 12 0 15 17 15 90 0 73 3 90 15 90 11 0 15 12 15 45 0 33 4 45 15 45 11 0
15 12 15 45 0 33 4 45 15 45 10 0 15 10 15 30 0 20 5 30 15 30 11 0 15 12 15
45 0 33 4 45 15 45 8 0 15 7 15 15 0 8 7 15 15 15 10 0 15 10 15 30 0 20 5 30
15 30 8 0 15 7 15 15 0 8 7 15 15 15 8 0 15 7 15 15 0 8 7 15 15 15 8 0 15 7
15 15 0 8 7 15 15 15 8 0 15 7 15 15 0 10 10 15 30 15 20 0 30 5 30 15 0 12
17 15 90 15 73 0 90 3 90 15 0 8 -7 15 -15 15 -8 0 -15 7 -15 15 0 8 -7 15
-15 15 -8 0 -15 7 -15 15 0 8 -7 15 -15 15 -8 0 -15 7 -15 15 0 8 -7 15 -15
15 -8 0 -15 7 -15 15 0 11 -12 15 -45 15 -33 0 -45 -4 -45 -15 0 -10 -10 -15
-30 -15 -20 0 -30 -5 -30 -15 0 -10 -10 -15 -30 -15 -20 0 -30 -5 -30 -15 0
-8 -7 -15 -15 -15 -8 0 -15 -7 -15 -15 0 -8 -7 -15 -15 -15 -8 0 -15 -7 -15
-15 0 -8 -7 -15 -15 -15 -8 0 -15 -7 -15 -15 0 -8 -7 -15 -15 -15 -8 0 -15 -7
-15 -15 0 -8 -7 -15 -15 -15 -10 0 -15 10 -15 30 0 20 5 30 15 30 10 0 15 10
15 30 0 20 5 30 15 30 10 0 15 10 15 30 0 20 5 30 15 30 10 0 15 10 15 30 0
20 5 30 15 30 8 0 15 7 15 15 0 13 27 15 180 15 l180 0 0 45 c0 33 -4 45 -15
45 -8 0 -15 7 -15 15 0 8 -7 15 -15 15 -8 0 -15 7 -15 15 0 8 -7 15 -15 15 -8
0 -15 7 -15 15 0 8 -7 15 -15 15 -8 0 -15 7 -15 15 0 8 -7 15 -15 15 -10 0
-15 10 -15 30 0 20 5 30 15 30 8 0 15 7 15 15 0 8 7 15 15 15 8 0 15 7 15 15
0 8 7 15 15 15 8 0 15 7 15 15 0 8 7 15 15 15 8 0 15 7 15 15 0 10 10 15 30
15 20 0 30 5 30 15 0 10 10 15 30 15 20 0 30 5 30 15 0 10 10 15 30 15 20 0
30 5 30 15 0 12 13 15 60 15 47 0 60 3 60 15 0 13 20 15 120 15 100 0 120 -2
120 -15z"/>
</g>
</svg>
